<?xml version="1.0" encoding="UTF-8" standalone="no"?>
<!DOCTYPE svg PUBLIC "-//W3C//DTD SVG 1.1//EN"
 "http://www.w3.org/Graphics/SVG/1.1/DTD/svg11.dtd">
<!-- Generated by graphviz version 12.0.0 (20240704.0754)
 -->
<!-- Pages: 1 -->
<svg width="3992pt" height="571pt"
 viewBox="0.00 0.00 3992.00 570.50" xmlns="http://www.w3.org/2000/svg" xmlns:xlink="http://www.w3.org/1999/xlink">
<g id="graph0" class="graph" transform="scale(1 1) rotate(0) translate(4 566.5)">
<polygon fill="white" stroke="none" points="-4,4 -4,-566.5 3988,-566.5 3988,4 -4,4"/>
<!-- 0 -->
<g id="node1" class="node">
<title>0</title>
<ellipse fill="none" stroke="black" cx="3044" cy="-544.5" rx="73.52" ry="18"/>
<text text-anchor="middle" x="3044" y="-539.08" font-family="Times New Roman,serif" font-size="14.00">RM&lt;6.94299984</text>
</g>
<!-- 1 -->
<g id="node2" class="node">
<title>1</title>
<ellipse fill="none" stroke="black" cx="2572" cy="-456.75" rx="88.49" ry="18"/>
<text text-anchor="middle" x="2572" y="-451.32" font-family="Times New Roman,serif" font-size="14.00">LSTAT&lt;14.4300003</text>
</g>
<!-- 0&#45;&gt;1 -->
<g id="edge1" class="edge">
<title>0&#45;&gt;1</title>
<path fill="none" stroke="blue" d="M2986.13,-532.99C2900.97,-517.51 2741.83,-488.6 2647.56,-471.48"/>
<polygon fill="blue" stroke="blue" points="2648.35,-468.06 2637.89,-469.72 2647.1,-474.95 2648.35,-468.06"/>
<text text-anchor="middle" x="2860.38" y="-495.2" font-family="Times New Roman,serif" font-size="14.00">yes</text>
</g>
<!-- 2 -->
<g id="node3" class="node">
<title>2</title>
<ellipse fill="none" stroke="black" cx="3437" cy="-456.75" rx="73.52" ry="18"/>
<text text-anchor="middle" x="3437" y="-451.32" font-family="Times New Roman,serif" font-size="14.00">RM&lt;7.42000008</text>
</g>
<!-- 0&#45;&gt;2 -->
<g id="edge2" class="edge">
<title>0&#45;&gt;2</title>
<path fill="none" stroke="red" d="M3097.41,-531.85C3168.93,-516.24 3295.66,-488.59 3372.44,-471.84"/>
<polygon fill="red" stroke="red" points="3372.89,-475.32 3381.92,-469.77 3371.4,-468.48 3372.89,-475.32"/>
<text text-anchor="middle" x="3307.88" y="-495.2" font-family="Times New Roman,serif" font-size="14.00">no, missing</text>
</g>
<!-- 3 -->
<g id="node4" class="node">
<title>3</title>
<ellipse fill="none" stroke="black" cx="767" cy="-369" rx="74.02" ry="18"/>
<text text-anchor="middle" x="767" y="-363.57" font-family="Times New Roman,serif" font-size="14.00">DIS&lt;1.35800004</text>
</g>
<!-- 1&#45;&gt;3 -->
<g id="edge3" class="edge">
<title>1&#45;&gt;3</title>
<path fill="none" stroke="blue" d="M2486.46,-451.69C2181.81,-437.21 1151.85,-388.28 850.49,-373.97"/>
<polygon fill="blue" stroke="blue" points="850.89,-370.48 840.74,-373.5 850.56,-377.47 850.89,-370.48"/>
<text text-anchor="middle" x="1841.38" y="-407.45" font-family="Times New Roman,serif" font-size="14.00">yes</text>
</g>
<!-- 4 -->
<g id="node5" class="node">
<title>4</title>
<ellipse fill="none" stroke="black" cx="2572" cy="-369" rx="83" ry="18"/>
<text text-anchor="middle" x="2572" y="-363.57" font-family="Times New Roman,serif" font-size="14.00">CRIM&lt;7.05041981</text>
</g>
<!-- 1&#45;&gt;4 -->
<g id="edge4" class="edge">
<title>1&#45;&gt;4</title>
<path fill="none" stroke="red" d="M2572,-438.4C2572,-427.01 2572,-411.84 2572,-398.68"/>
<polygon fill="red" stroke="red" points="2575.5,-398.84 2572,-388.84 2568.5,-398.84 2575.5,-398.84"/>
<text text-anchor="middle" x="2603.88" y="-407.45" font-family="Times New Roman,serif" font-size="14.00">no, missing</text>
</g>
<!-- 5 -->
<g id="node46" class="node">
<title>5</title>
<ellipse fill="none" stroke="black" cx="3437" cy="-369" rx="83" ry="18"/>
<text text-anchor="middle" x="3437" y="-363.57" font-family="Times New Roman,serif" font-size="14.00">CRIM&lt;6.71772003</text>
</g>
<!-- 2&#45;&gt;5 -->
<g id="edge45" class="edge">
<title>2&#45;&gt;5</title>
<path fill="none" stroke="blue" d="M3437,-438.4C3437,-427.01 3437,-411.84 3437,-398.68"/>
<polygon fill="blue" stroke="blue" points="3440.5,-398.84 3437,-388.84 3433.5,-398.84 3440.5,-398.84"/>
<text text-anchor="middle" x="3446.38" y="-407.45" font-family="Times New Roman,serif" font-size="14.00">yes</text>
</g>
<!-- 6 -->
<g id="node47" class="node">
<title>6</title>
<ellipse fill="none" stroke="black" cx="3699" cy="-369" rx="83" ry="18"/>
<text text-anchor="middle" x="3699" y="-363.57" font-family="Times New Roman,serif" font-size="14.00">CRIM&lt;2.24236012</text>
</g>
<!-- 2&#45;&gt;6 -->
<g id="edge46" class="edge">
<title>2&#45;&gt;6</title>
<path fill="none" stroke="red" d="M3479.68,-441.78C3524.44,-427.13 3594.94,-404.06 3643.88,-388.04"/>
<polygon fill="red" stroke="red" points="3644.74,-391.44 3653.15,-385.01 3642.56,-384.79 3644.74,-391.44"/>
<text text-anchor="middle" x="3623.88" y="-407.45" font-family="Times New Roman,serif" font-size="14.00">no, missing</text>
</g>
<!-- 7 -->
<g id="node6" class="node">
<title>7</title>
<ellipse fill="none" stroke="black" cx="492" cy="-281.25" rx="83" ry="18"/>
<text text-anchor="middle" x="492" y="-275.82" font-family="Times New Roman,serif" font-size="14.00">CRIM&lt;8.49213028</text>
</g>
<!-- 3&#45;&gt;7 -->
<g id="edge5" class="edge">
<title>3&#45;&gt;7</title>
<path fill="none" stroke="blue" d="M722.82,-354.22C675.58,-339.49 600.5,-316.08 548.88,-299.98"/>
<polygon fill="blue" stroke="blue" points="549.94,-296.65 539.36,-297.02 547.86,-303.33 549.94,-296.65"/>
<text text-anchor="middle" x="664.38" y="-319.7" font-family="Times New Roman,serif" font-size="14.00">yes</text>
</g>
<!-- 8 -->
<g id="node7" class="node">
<title>8</title>
<ellipse fill="none" stroke="black" cx="767" cy="-281.25" rx="73.52" ry="18"/>
<text text-anchor="middle" x="767" y="-275.82" font-family="Times New Roman,serif" font-size="14.00">RM&lt;6.54899979</text>
</g>
<!-- 3&#45;&gt;8 -->
<g id="edge6" class="edge">
<title>3&#45;&gt;8</title>
<path fill="none" stroke="red" d="M767,-350.65C767,-339.26 767,-324.09 767,-310.93"/>
<polygon fill="red" stroke="red" points="770.5,-311.09 767,-301.09 763.5,-311.09 770.5,-311.09"/>
<text text-anchor="middle" x="798.88" y="-319.7" font-family="Times New Roman,serif" font-size="14.00">no, missing</text>
</g>
<!-- 9 -->
<g id="node24" class="node">
<title>9</title>
<ellipse fill="none" stroke="black" cx="2403" cy="-281.25" rx="78.01" ry="18"/>
<text text-anchor="middle" x="2403" y="-275.82" font-family="Times New Roman,serif" font-size="14.00">AGE&lt;73.3000031</text>
</g>
<!-- 4&#45;&gt;9 -->
<g id="edge23" class="edge">
<title>4&#45;&gt;9</title>
<path fill="none" stroke="blue" d="M2540.61,-352.07C2513.46,-338.29 2474,-318.27 2444.29,-303.2"/>
<polygon fill="blue" stroke="blue" points="2446.08,-300.18 2435.58,-298.78 2442.91,-306.42 2446.08,-300.18"/>
<text text-anchor="middle" x="2512.38" y="-319.7" font-family="Times New Roman,serif" font-size="14.00">yes</text>
</g>
<!-- 10 -->
<g id="node25" class="node">
<title>10</title>
<ellipse fill="none" stroke="black" cx="2721" cy="-281.25" rx="73.52" ry="18"/>
<text text-anchor="middle" x="2721" y="-275.82" font-family="Times New Roman,serif" font-size="14.00">RM&lt;6.85200024</text>
</g>
<!-- 4&#45;&gt;10 -->
<g id="edge24" class="edge">
<title>4&#45;&gt;10</title>
<path fill="none" stroke="red" d="M2600.38,-351.67C2623.93,-338.11 2657.63,-318.72 2683.43,-303.88"/>
<polygon fill="red" stroke="red" points="2685,-307.01 2691.93,-298.98 2681.51,-300.94 2685,-307.01"/>
<text text-anchor="middle" x="2691.88" y="-319.7" font-family="Times New Roman,serif" font-size="14.00">no, missing</text>
</g>
<!-- 15 -->
<g id="node8" class="node">
<title>15</title>
<ellipse fill="none" stroke="black" cx="325" cy="-193.5" rx="72.02" ry="18"/>
<text text-anchor="middle" x="325" y="-188.07" font-family="Times New Roman,serif" font-size="14.00">leaf=2.04026008</text>
</g>
<!-- 7&#45;&gt;15 -->
<g id="edge7" class="edge">
<title>7&#45;&gt;15</title>
<path fill="none" stroke="blue" d="M460.59,-264.12C433.63,-250.28 394.61,-230.24 365.34,-215.21"/>
<polygon fill="blue" stroke="blue" points="367.27,-212.27 356.78,-210.81 364.07,-218.5 367.27,-212.27"/>
<text text-anchor="middle" x="433.38" y="-231.95" font-family="Times New Roman,serif" font-size="14.00">yes</text>
</g>
<!-- 16 -->
<g id="node9" class="node">
<title>16</title>
<ellipse fill="none" stroke="black" cx="492" cy="-193.5" rx="76.51" ry="18"/>
<text text-anchor="middle" x="492" y="-188.07" font-family="Times New Roman,serif" font-size="14.00">leaf=0.255173206</text>
</g>
<!-- 7&#45;&gt;16 -->
<g id="edge8" class="edge">
<title>7&#45;&gt;16</title>
<path fill="none" stroke="red" d="M492,-262.9C492,-251.51 492,-236.34 492,-223.18"/>
<polygon fill="red" stroke="red" points="495.5,-223.34 492,-213.34 488.5,-223.34 495.5,-223.34"/>
<text text-anchor="middle" x="523.88" y="-231.95" font-family="Times New Roman,serif" font-size="14.00">no, missing</text>
</g>
<!-- 17 -->
<g id="node10" class="node">
<title>17</title>
<ellipse fill="none" stroke="black" cx="660" cy="-193.5" rx="73.52" ry="18"/>
<text text-anchor="middle" x="660" y="-188.07" font-family="Times New Roman,serif" font-size="14.00">RM&lt;6.08099985</text>
</g>
<!-- 8&#45;&gt;17 -->
<g id="edge9" class="edge">
<title>8&#45;&gt;17</title>
<path fill="none" stroke="blue" d="M746.12,-263.51C730.06,-250.65 707.67,-232.7 689.75,-218.34"/>
<polygon fill="blue" stroke="blue" points="692.01,-215.66 682.02,-212.14 687.63,-221.13 692.01,-215.66"/>
<text text-anchor="middle" x="733.38" y="-231.95" font-family="Times New Roman,serif" font-size="14.00">yes</text>
</g>
<!-- 18 -->
<g id="node11" class="node">
<title>18</title>
<ellipse fill="none" stroke="black" cx="914" cy="-193.5" rx="88.49" ry="18"/>
<text text-anchor="middle" x="914" y="-188.07" font-family="Times New Roman,serif" font-size="14.00">LSTAT&lt;5.69999981</text>
</g>
<!-- 8&#45;&gt;18 -->
<g id="edge10" class="edge">
<title>8&#45;&gt;18</title>
<path fill="none" stroke="red" d="M794.65,-264.12C817.71,-250.67 850.78,-231.38 876.27,-216.51"/>
<polygon fill="red" stroke="red" points="877.8,-219.67 884.67,-211.61 874.27,-213.63 877.8,-219.67"/>
<text text-anchor="middle" x="885.88" y="-231.95" font-family="Times New Roman,serif" font-size="14.00">no, missing</text>
</g>
<!-- 27 -->
<g id="node12" class="node">
<title>27</title>
<ellipse fill="none" stroke="black" cx="260" cy="-105.75" rx="88.49" ry="18"/>
<text text-anchor="middle" x="260" y="-100.33" font-family="Times New Roman,serif" font-size="14.00">LSTAT&lt;6.61999989</text>
</g>
<!-- 17&#45;&gt;27 -->
<g id="edge11" class="edge">
<title>17&#45;&gt;27</title>
<path fill="none" stroke="blue" d="M606.06,-180.94C534.67,-165.63 408.7,-138.63 330.04,-121.76"/>
<polygon fill="blue" stroke="blue" points="331.26,-118.45 320.75,-119.77 329.79,-125.29 331.26,-118.45"/>
<text text-anchor="middle" x="505.38" y="-144.2" font-family="Times New Roman,serif" font-size="14.00">yes</text>
</g>
<!-- 28 -->
<g id="node13" class="node">
<title>28</title>
<ellipse fill="none" stroke="black" cx="604" cy="-105.75" rx="48.57" ry="18"/>
<text text-anchor="middle" x="604" y="-100.33" font-family="Times New Roman,serif" font-size="14.00">TAX&lt;223</text>
</g>
<!-- 17&#45;&gt;28 -->
<g id="edge12" class="edge">
<title>17&#45;&gt;28</title>
<path fill="none" stroke="red" d="M648.94,-175.56C641.04,-163.46 630.26,-146.95 621.24,-133.14"/>
<polygon fill="red" stroke="red" points="624.27,-131.38 615.87,-124.92 618.41,-135.21 624.27,-131.38"/>
<text text-anchor="middle" x="669.88" y="-144.2" font-family="Times New Roman,serif" font-size="14.00">no, missing</text>
</g>
<!-- 29 -->
<g id="node18" class="node">
<title>29</title>
<ellipse fill="none" stroke="black" cx="914" cy="-105.75" rx="86.99" ry="18"/>
<text text-anchor="middle" x="914" y="-100.33" font-family="Times New Roman,serif" font-size="14.00">INDUS&lt;6.90999985</text>
</g>
<!-- 18&#45;&gt;29 -->
<g id="edge17" class="edge">
<title>18&#45;&gt;29</title>
<path fill="none" stroke="blue" d="M914,-175.15C914,-163.76 914,-148.59 914,-135.43"/>
<polygon fill="blue" stroke="blue" points="917.5,-135.59 914,-125.59 910.5,-135.59 917.5,-135.59"/>
<text text-anchor="middle" x="923.38" y="-144.2" font-family="Times New Roman,serif" font-size="14.00">yes</text>
</g>
<!-- 30 -->
<g id="node19" class="node">
<title>30</title>
<ellipse fill="none" stroke="black" cx="1125" cy="-105.75" rx="88.49" ry="18"/>
<text text-anchor="middle" x="1125" y="-100.33" font-family="Times New Roman,serif" font-size="14.00">LSTAT&lt;9.97000027</text>
</g>
<!-- 18&#45;&gt;30 -->
<g id="edge18" class="edge">
<title>18&#45;&gt;30</title>
<path fill="none" stroke="red" d="M952.21,-176.97C987.06,-162.81 1038.71,-141.82 1076.47,-126.48"/>
<polygon fill="red" stroke="red" points="1077.37,-129.89 1085.32,-122.88 1074.74,-123.4 1077.37,-129.89"/>
<text text-anchor="middle" x="1070.88" y="-144.2" font-family="Times New Roman,serif" font-size="14.00">no, missing</text>
</g>
<!-- 39 -->
<g id="node14" class="node">
<title>39</title>
<ellipse fill="none" stroke="black" cx="81" cy="-18" rx="81" ry="18"/>
<text text-anchor="middle" x="81" y="-12.57" font-family="Times New Roman,serif" font-size="14.00">leaf=0.0602309518</text>
</g>
<!-- 27&#45;&gt;39 -->
<g id="edge13" class="edge">
<title>27&#45;&gt;39</title>
<path fill="none" stroke="blue" d="M226.75,-88.82C197.87,-74.98 155.84,-54.85 124.32,-39.75"/>
<polygon fill="blue" stroke="blue" points="125.97,-36.66 115.44,-35.5 122.95,-42.97 125.97,-36.66"/>
<text text-anchor="middle" x="196.38" y="-56.45" font-family="Times New Roman,serif" font-size="14.00">yes</text>
</g>
<!-- 40 -->
<g id="node15" class="node">
<title>40</title>
<ellipse fill="none" stroke="black" cx="260" cy="-18" rx="79.51" ry="18"/>
<text text-anchor="middle" x="260" y="-12.57" font-family="Times New Roman,serif" font-size="14.00">leaf=&#45;0.255031854</text>
</g>
<!-- 27&#45;&gt;40 -->
<g id="edge14" class="edge">
<title>27&#45;&gt;40</title>
<path fill="none" stroke="red" d="M260,-87.4C260,-76.01 260,-60.84 260,-47.68"/>
<polygon fill="red" stroke="red" points="263.5,-47.84 260,-37.84 256.5,-47.84 263.5,-47.84"/>
<text text-anchor="middle" x="291.88" y="-56.45" font-family="Times New Roman,serif" font-size="14.00">no, missing</text>
</g>
<!-- 41 -->
<g id="node16" class="node">
<title>41</title>
<ellipse fill="none" stroke="black" cx="430" cy="-18" rx="72.02" ry="18"/>
<text text-anchor="middle" x="430" y="-12.57" font-family="Times New Roman,serif" font-size="14.00">leaf=0.65275991</text>
</g>
<!-- 28&#45;&gt;41 -->
<g id="edge15" class="edge">
<title>28&#45;&gt;41</title>
<path fill="none" stroke="blue" d="M575.66,-90.78C547.42,-76.86 503.74,-55.34 471.58,-39.49"/>
<polygon fill="blue" stroke="blue" points="473.45,-36.51 462.93,-35.23 470.36,-42.79 473.45,-36.51"/>
<text text-anchor="middle" x="542.38" y="-56.45" font-family="Times New Roman,serif" font-size="14.00">yes</text>
</g>
<!-- 42 -->
<g id="node17" class="node">
<title>42</title>
<ellipse fill="none" stroke="black" cx="604" cy="-18" rx="84" ry="18"/>
<text text-anchor="middle" x="604" y="-12.57" font-family="Times New Roman,serif" font-size="14.00">leaf=&#45;0.0368989035</text>
</g>
<!-- 28&#45;&gt;42 -->
<g id="edge16" class="edge">
<title>28&#45;&gt;42</title>
<path fill="none" stroke="red" d="M604,-87.4C604,-76.01 604,-60.84 604,-47.68"/>
<polygon fill="red" stroke="red" points="607.5,-47.84 604,-37.84 600.5,-47.84 607.5,-47.84"/>
<text text-anchor="middle" x="635.88" y="-56.45" font-family="Times New Roman,serif" font-size="14.00">no, missing</text>
</g>
<!-- 43 -->
<g id="node20" class="node">
<title>43</title>
<ellipse fill="none" stroke="black" cx="783" cy="-18" rx="76.51" ry="18"/>
<text text-anchor="middle" x="783" y="-12.57" font-family="Times New Roman,serif" font-size="14.00">leaf=0.754607379</text>
</g>
<!-- 29&#45;&gt;43 -->
<g id="edge19" class="edge">
<title>29&#45;&gt;43</title>
<path fill="none" stroke="blue" d="M888.75,-88.22C868.54,-74.99 839.99,-56.3 817.65,-41.68"/>
<polygon fill="blue" stroke="blue" points="819.73,-38.86 809.45,-36.31 815.9,-44.72 819.73,-38.86"/>
<text text-anchor="middle" x="870.38" y="-56.45" font-family="Times New Roman,serif" font-size="14.00">yes</text>
</g>
<!-- 44 -->
<g id="node21" class="node">
<title>44</title>
<ellipse fill="none" stroke="black" cx="954" cy="-18" rx="76.51" ry="18"/>
<text text-anchor="middle" x="954" y="-12.57" font-family="Times New Roman,serif" font-size="14.00">leaf=0.126897618</text>
</g>
<!-- 29&#45;&gt;44 -->
<g id="edge20" class="edge">
<title>29&#45;&gt;44</title>
<path fill="none" stroke="red" d="M922.1,-87.4C927.57,-75.66 934.92,-59.91 941.19,-46.48"/>
<polygon fill="red" stroke="red" points="944.23,-48.24 945.28,-37.7 937.88,-45.28 944.23,-48.24"/>
<text text-anchor="middle" x="969.88" y="-56.45" font-family="Times New Roman,serif" font-size="14.00">no, missing</text>
</g>
<!-- 45 -->
<g id="node22" class="node">
<title>45</title>
<ellipse fill="none" stroke="black" cx="1125" cy="-18" rx="76.51" ry="18"/>
<text text-anchor="middle" x="1125" y="-12.57" font-family="Times New Roman,serif" font-size="14.00">leaf=0.354732603</text>
</g>
<!-- 30&#45;&gt;45 -->
<g id="edge21" class="edge">
<title>30&#45;&gt;45</title>
<path fill="none" stroke="blue" d="M1125,-87.4C1125,-76.01 1125,-60.84 1125,-47.68"/>
<polygon fill="blue" stroke="blue" points="1128.5,-47.84 1125,-37.84 1121.5,-47.84 1128.5,-47.84"/>
<text text-anchor="middle" x="1134.38" y="-56.45" font-family="Times New Roman,serif" font-size="14.00">yes</text>
</g>
<!-- 46 -->
<g id="node23" class="node">
<title>46</title>
<ellipse fill="none" stroke="black" cx="1299" cy="-18" rx="79.51" ry="18"/>
<text text-anchor="middle" x="1299" y="-12.57" font-family="Times New Roman,serif" font-size="14.00">leaf=&#45;0.064740181</text>
</g>
<!-- 30&#45;&gt;46 -->
<g id="edge22" class="edge">
<title>30&#45;&gt;46</title>
<path fill="none" stroke="red" d="M1157.73,-88.62C1185.65,-74.86 1225.97,-54.99 1256.4,-39.99"/>
<polygon fill="red" stroke="red" points="1257.94,-43.14 1265.36,-35.58 1254.84,-36.86 1257.94,-43.14"/>
<text text-anchor="middle" x="1259.88" y="-56.45" font-family="Times New Roman,serif" font-size="14.00">no, missing</text>
</g>
<!-- 19 -->
<g id="node26" class="node">
<title>19</title>
<ellipse fill="none" stroke="black" cx="1923" cy="-193.5" rx="88.49" ry="18"/>
<text text-anchor="middle" x="1923" y="-188.07" font-family="Times New Roman,serif" font-size="14.00">LSTAT&lt;16.2199993</text>
</g>
<!-- 9&#45;&gt;19 -->
<g id="edge25" class="edge">
<title>9&#45;&gt;19</title>
<path fill="none" stroke="blue" d="M2342.7,-269.48C2255.59,-253.92 2094.6,-225.15 1999.33,-208.13"/>
<polygon fill="blue" stroke="blue" points="1999.99,-204.7 1989.53,-206.39 1998.76,-211.59 1999.99,-204.7"/>
<text text-anchor="middle" x="2215.38" y="-231.95" font-family="Times New Roman,serif" font-size="14.00">yes</text>
</g>
<!-- 20 -->
<g id="node27" class="node">
<title>20</title>
<ellipse fill="none" stroke="black" cx="2403" cy="-193.5" rx="87.49" ry="18"/>
<text text-anchor="middle" x="2403" y="-188.07" font-family="Times New Roman,serif" font-size="14.00">CRIM&lt;0.144759998</text>
</g>
<!-- 9&#45;&gt;20 -->
<g id="edge26" class="edge">
<title>9&#45;&gt;20</title>
<path fill="none" stroke="red" d="M2403,-262.9C2403,-251.51 2403,-236.34 2403,-223.18"/>
<polygon fill="red" stroke="red" points="2406.5,-223.34 2403,-213.34 2399.5,-223.34 2406.5,-223.34"/>
<text text-anchor="middle" x="2434.88" y="-231.95" font-family="Times New Roman,serif" font-size="14.00">no, missing</text>
</g>
<!-- 21 -->
<g id="node40" class="node">
<title>21</title>
<ellipse fill="none" stroke="black" cx="2721" cy="-193.5" rx="79.01" ry="18"/>
<text text-anchor="middle" x="2721" y="-188.07" font-family="Times New Roman,serif" font-size="14.00">NOX&lt;0.58099997</text>
</g>
<!-- 10&#45;&gt;21 -->
<g id="edge39" class="edge">
<title>10&#45;&gt;21</title>
<path fill="none" stroke="blue" d="M2721,-262.9C2721,-251.51 2721,-236.34 2721,-223.18"/>
<polygon fill="blue" stroke="blue" points="2724.5,-223.34 2721,-213.34 2717.5,-223.34 2724.5,-223.34"/>
<text text-anchor="middle" x="2730.38" y="-231.95" font-family="Times New Roman,serif" font-size="14.00">yes</text>
</g>
<!-- 22 -->
<g id="node41" class="node">
<title>22</title>
<ellipse fill="none" stroke="black" cx="2895" cy="-193.5" rx="76.51" ry="18"/>
<text text-anchor="middle" x="2895" y="-188.07" font-family="Times New Roman,serif" font-size="14.00">leaf=0.235173225</text>
</g>
<!-- 10&#45;&gt;22 -->
<g id="edge40" class="edge">
<title>10&#45;&gt;22</title>
<path fill="none" stroke="red" d="M2752.51,-264.72C2780.67,-250.85 2822.13,-230.41 2853.08,-215.16"/>
<polygon fill="red" stroke="red" points="2854.36,-218.43 2861.78,-210.87 2851.27,-212.15 2854.36,-218.43"/>
<text text-anchor="middle" x="2855.88" y="-231.95" font-family="Times New Roman,serif" font-size="14.00">no, missing</text>
</g>
<!-- 31 -->
<g id="node28" class="node">
<title>31</title>
<ellipse fill="none" stroke="black" cx="1653" cy="-105.75" rx="45.57" ry="18"/>
<text text-anchor="middle" x="1653" y="-100.33" font-family="Times New Roman,serif" font-size="14.00">CHAS&lt;1</text>
</g>
<!-- 19&#45;&gt;31 -->
<g id="edge27" class="edge">
<title>19&#45;&gt;31</title>
<path fill="none" stroke="blue" d="M1876.59,-177.76C1826.69,-161.91 1747.87,-136.88 1698.38,-121.16"/>
<polygon fill="blue" stroke="blue" points="1699.71,-117.91 1689.12,-118.22 1697.59,-124.58 1699.71,-117.91"/>
<text text-anchor="middle" x="1822.38" y="-144.2" font-family="Times New Roman,serif" font-size="14.00">yes</text>
</g>
<!-- 32 -->
<g id="node29" class="node">
<title>32</title>
<ellipse fill="none" stroke="black" cx="1923" cy="-105.75" rx="73.52" ry="18"/>
<text text-anchor="middle" x="1923" y="-100.33" font-family="Times New Roman,serif" font-size="14.00">RM&lt;5.68300009</text>
</g>
<!-- 19&#45;&gt;32 -->
<g id="edge28" class="edge">
<title>19&#45;&gt;32</title>
<path fill="none" stroke="red" d="M1923,-175.15C1923,-163.76 1923,-148.59 1923,-135.43"/>
<polygon fill="red" stroke="red" points="1926.5,-135.59 1923,-125.59 1919.5,-135.59 1926.5,-135.59"/>
<text text-anchor="middle" x="1954.88" y="-144.2" font-family="Times New Roman,serif" font-size="14.00">no, missing</text>
</g>
<!-- 33 -->
<g id="node34" class="node">
<title>33</title>
<ellipse fill="none" stroke="black" cx="2361" cy="-105.75" rx="87.49" ry="18"/>
<text text-anchor="middle" x="2361" y="-100.33" font-family="Times New Roman,serif" font-size="14.00">CRIM&lt;0.140300006</text>
</g>
<!-- 20&#45;&gt;33 -->
<g id="edge33" class="edge">
<title>20&#45;&gt;33</title>
<path fill="none" stroke="blue" d="M2394.5,-175.15C2388.75,-163.41 2381.04,-147.66 2374.46,-134.23"/>
<polygon fill="blue" stroke="blue" points="2377.7,-132.88 2370.16,-125.44 2371.41,-135.96 2377.7,-132.88"/>
<text text-anchor="middle" x="2395.38" y="-144.2" font-family="Times New Roman,serif" font-size="14.00">yes</text>
</g>
<!-- 34 -->
<g id="node35" class="node">
<title>34</title>
<ellipse fill="none" stroke="black" cx="2545" cy="-105.75" rx="78.01" ry="18"/>
<text text-anchor="middle" x="2545" y="-100.33" font-family="Times New Roman,serif" font-size="14.00">AGE&lt;92.1999969</text>
</g>
<!-- 20&#45;&gt;34 -->
<g id="edge34" class="edge">
<title>20&#45;&gt;34</title>
<path fill="none" stroke="red" d="M2430.38,-175.97C2452.62,-162.54 2484.19,-143.47 2508.57,-128.75"/>
<polygon fill="red" stroke="red" points="2510.14,-131.89 2516.89,-123.72 2506.53,-125.9 2510.14,-131.89"/>
<text text-anchor="middle" x="2518.88" y="-144.2" font-family="Times New Roman,serif" font-size="14.00">no, missing</text>
</g>
<!-- 47 -->
<g id="node30" class="node">
<title>47</title>
<ellipse fill="none" stroke="black" cx="1476" cy="-18" rx="79.51" ry="18"/>
<text text-anchor="middle" x="1476" y="-12.57" font-family="Times New Roman,serif" font-size="14.00">leaf=&#45;0.232560202</text>
</g>
<!-- 31&#45;&gt;47 -->
<g id="edge29" class="edge">
<title>31&#45;&gt;47</title>
<path fill="none" stroke="blue" d="M1624.96,-91.16C1596.46,-77.36 1551.94,-55.79 1518.99,-39.82"/>
<polygon fill="blue" stroke="blue" points="1520.62,-36.72 1510.09,-35.51 1517.56,-43.02 1520.62,-36.72"/>
<text text-anchor="middle" x="1590.38" y="-56.45" font-family="Times New Roman,serif" font-size="14.00">yes</text>
</g>
<!-- 48 -->
<g id="node31" class="node">
<title>48</title>
<ellipse fill="none" stroke="black" cx="1653" cy="-18" rx="79.51" ry="18"/>
<text text-anchor="middle" x="1653" y="-12.57" font-family="Times New Roman,serif" font-size="14.00">leaf=&#45;0.019826794</text>
</g>
<!-- 31&#45;&gt;48 -->
<g id="edge30" class="edge">
<title>31&#45;&gt;48</title>
<path fill="none" stroke="red" d="M1653,-87.4C1653,-76.01 1653,-60.84 1653,-47.68"/>
<polygon fill="red" stroke="red" points="1656.5,-47.84 1653,-37.84 1649.5,-47.84 1656.5,-47.84"/>
<text text-anchor="middle" x="1684.88" y="-56.45" font-family="Times New Roman,serif" font-size="14.00">no, missing</text>
</g>
<!-- 49 -->
<g id="node32" class="node">
<title>49</title>
<ellipse fill="none" stroke="black" cx="1832" cy="-18" rx="81" ry="18"/>
<text text-anchor="middle" x="1832" y="-12.57" font-family="Times New Roman,serif" font-size="14.00">leaf=0.0402310044</text>
</g>
<!-- 32&#45;&gt;49 -->
<g id="edge31" class="edge">
<title>32&#45;&gt;49</title>
<path fill="none" stroke="blue" d="M1905.02,-87.81C1891.69,-75.24 1873.3,-57.91 1858.31,-43.79"/>
<polygon fill="blue" stroke="blue" points="1860.72,-41.26 1851.05,-36.94 1855.92,-46.35 1860.72,-41.26"/>
<text text-anchor="middle" x="1895.38" y="-56.45" font-family="Times New Roman,serif" font-size="14.00">yes</text>
</g>
<!-- 50 -->
<g id="node33" class="node">
<title>50</title>
<ellipse fill="none" stroke="black" cx="2015" cy="-18" rx="84" ry="18"/>
<text text-anchor="middle" x="2015" y="-12.57" font-family="Times New Roman,serif" font-size="14.00">leaf=&#45;0.0148267746</text>
</g>
<!-- 32&#45;&gt;50 -->
<g id="edge32" class="edge">
<title>32&#45;&gt;50</title>
<path fill="none" stroke="red" d="M1940.74,-88.22C1954.4,-75.49 1973.48,-57.7 1988.89,-43.34"/>
<polygon fill="red" stroke="red" points="1990.97,-46.19 1995.9,-36.81 1986.2,-41.07 1990.97,-46.19"/>
<text text-anchor="middle" x="2009.88" y="-56.45" font-family="Times New Roman,serif" font-size="14.00">no, missing</text>
</g>
<!-- 51 -->
<g id="node36" class="node">
<title>51</title>
<ellipse fill="none" stroke="black" cx="2197" cy="-18" rx="79.51" ry="18"/>
<text text-anchor="middle" x="2197" y="-12.57" font-family="Times New Roman,serif" font-size="14.00">leaf=&#45;0.239740178</text>
</g>
<!-- 33&#45;&gt;51 -->
<g id="edge35" class="edge">
<title>33&#45;&gt;51</title>
<path fill="none" stroke="blue" d="M2330.16,-88.62C2304.04,-74.97 2266.41,-55.29 2237.8,-40.33"/>
<polygon fill="blue" stroke="blue" points="2239.54,-37.29 2229.05,-35.76 2236.29,-43.49 2239.54,-37.29"/>
<text text-anchor="middle" x="2303.38" y="-56.45" font-family="Times New Roman,serif" font-size="14.00">yes</text>
</g>
<!-- 52 -->
<g id="node37" class="node">
<title>52</title>
<ellipse fill="none" stroke="black" cx="2371" cy="-18" rx="76.51" ry="18"/>
<text text-anchor="middle" x="2371" y="-12.57" font-family="Times New Roman,serif" font-size="14.00">leaf=0.215173244</text>
</g>
<!-- 33&#45;&gt;52 -->
<g id="edge36" class="edge">
<title>33&#45;&gt;52</title>
<path fill="none" stroke="red" d="M2363.03,-87.4C2364.36,-76.01 2366.12,-60.84 2367.66,-47.68"/>
<polygon fill="red" stroke="red" points="2371.13,-48.17 2368.81,-37.83 2364.17,-47.36 2371.13,-48.17"/>
<text text-anchor="middle" x="2398.88" y="-56.45" font-family="Times New Roman,serif" font-size="14.00">no, missing</text>
</g>
<!-- 53 -->
<g id="node38" class="node">
<title>53</title>
<ellipse fill="none" stroke="black" cx="2545" cy="-18" rx="79.51" ry="18"/>
<text text-anchor="middle" x="2545" y="-12.57" font-family="Times New Roman,serif" font-size="14.00">leaf=&#45;0.487059921</text>
</g>
<!-- 34&#45;&gt;53 -->
<g id="edge37" class="edge">
<title>34&#45;&gt;53</title>
<path fill="none" stroke="blue" d="M2545,-87.4C2545,-76.01 2545,-60.84 2545,-47.68"/>
<polygon fill="blue" stroke="blue" points="2548.5,-47.84 2545,-37.84 2541.5,-47.84 2548.5,-47.84"/>
<text text-anchor="middle" x="2554.38" y="-56.45" font-family="Times New Roman,serif" font-size="14.00">yes</text>
</g>
<!-- 54 -->
<g id="node39" class="node">
<title>54</title>
<ellipse fill="none" stroke="black" cx="2722" cy="-18" rx="79.51" ry="18"/>
<text text-anchor="middle" x="2722" y="-12.57" font-family="Times New Roman,serif" font-size="14.00">leaf=&#45;0.738442481</text>
</g>
<!-- 34&#45;&gt;54 -->
<g id="edge38" class="edge">
<title>34&#45;&gt;54</title>
<path fill="none" stroke="red" d="M2577.47,-89.02C2606.07,-75.16 2647.94,-54.88 2679.26,-39.71"/>
<polygon fill="red" stroke="red" points="2680.61,-42.94 2688.08,-35.43 2677.56,-36.64 2680.61,-42.94"/>
<text text-anchor="middle" x="2681.88" y="-56.45" font-family="Times New Roman,serif" font-size="14.00">no, missing</text>
</g>
<!-- 35 -->
<g id="node42" class="node">
<title>35</title>
<ellipse fill="none" stroke="black" cx="2721" cy="-105.75" rx="79.51" ry="18"/>
<text text-anchor="middle" x="2721" y="-100.33" font-family="Times New Roman,serif" font-size="14.00">leaf=&#45;0.213102341</text>
</g>
<!-- 21&#45;&gt;35 -->
<g id="edge41" class="edge">
<title>21&#45;&gt;35</title>
<path fill="none" stroke="blue" d="M2721,-175.15C2721,-163.76 2721,-148.59 2721,-135.43"/>
<polygon fill="blue" stroke="blue" points="2724.5,-135.59 2721,-125.59 2717.5,-135.59 2724.5,-135.59"/>
<text text-anchor="middle" x="2730.38" y="-144.2" font-family="Times New Roman,serif" font-size="14.00">yes</text>
</g>
<!-- 36 -->
<g id="node43" class="node">
<title>36</title>
<ellipse fill="none" stroke="black" cx="2907" cy="-105.75" rx="88.49" ry="18"/>
<text text-anchor="middle" x="2907" y="-100.33" font-family="Times New Roman,serif" font-size="14.00">LSTAT&lt;19.6900005</text>
</g>
<!-- 21&#45;&gt;36 -->
<g id="edge42" class="edge">
<title>21&#45;&gt;36</title>
<path fill="none" stroke="red" d="M2754.69,-176.97C2784.73,-163.12 2828.94,-142.74 2862,-127.5"/>
<polygon fill="red" stroke="red" points="2863.32,-130.74 2870.94,-123.38 2860.39,-124.39 2863.32,-130.74"/>
<text text-anchor="middle" x="2862.88" y="-144.2" font-family="Times New Roman,serif" font-size="14.00">no, missing</text>
</g>
<!-- 55 -->
<g id="node44" class="node">
<title>55</title>
<ellipse fill="none" stroke="black" cx="2899" cy="-18" rx="79.51" ry="18"/>
<text text-anchor="middle" x="2899" y="-12.57" font-family="Times New Roman,serif" font-size="14.00">leaf=&#45;0.844968021</text>
</g>
<!-- 36&#45;&gt;55 -->
<g id="edge43" class="edge">
<title>36&#45;&gt;55</title>
<path fill="none" stroke="blue" d="M2905.38,-87.4C2904.32,-76.01 2902.91,-60.84 2901.68,-47.68"/>
<polygon fill="blue" stroke="blue" points="2905.17,-47.47 2900.76,-37.83 2898.2,-48.12 2905.17,-47.47"/>
<text text-anchor="middle" x="2913.38" y="-56.45" font-family="Times New Roman,serif" font-size="14.00">yes</text>
</g>
<!-- 56 -->
<g id="node45" class="node">
<title>56</title>
<ellipse fill="none" stroke="black" cx="3067" cy="-18" rx="70.52" ry="18"/>
<text text-anchor="middle" x="3067" y="-12.57" font-family="Times New Roman,serif" font-size="14.00">leaf=&#45;1.2161622</text>
</g>
<!-- 36&#45;&gt;56 -->
<g id="edge44" class="edge">
<title>36&#45;&gt;56</title>
<path fill="none" stroke="red" d="M2937.48,-88.42C2963.15,-74.66 3000.06,-54.88 3027.91,-39.95"/>
<polygon fill="red" stroke="red" points="3029.23,-43.21 3036.39,-35.41 3025.92,-37.05 3029.23,-43.21"/>
<text text-anchor="middle" x="3033.88" y="-56.45" font-family="Times New Roman,serif" font-size="14.00">no, missing</text>
</g>
<!-- 11 -->
<g id="node48" class="node">
<title>11</title>
<ellipse fill="none" stroke="black" cx="3305" cy="-281.25" rx="99.47" ry="18"/>
<text text-anchor="middle" x="3305" y="-275.82" font-family="Times New Roman,serif" font-size="14.00">PTRATIO&lt;20.8999996</text>
</g>
<!-- 5&#45;&gt;11 -->
<g id="edge47" class="edge">
<title>5&#45;&gt;11</title>
<path fill="none" stroke="blue" d="M3411.55,-351.47C3391.32,-338.32 3362.79,-319.79 3340.35,-305.21"/>
<polygon fill="blue" stroke="blue" points="3342.39,-302.36 3332.1,-299.85 3338.58,-308.23 3342.39,-302.36"/>
<text text-anchor="middle" x="3392.38" y="-319.7" font-family="Times New Roman,serif" font-size="14.00">yes</text>
</g>
<!-- 12 -->
<g id="node49" class="node">
<title>12</title>
<ellipse fill="none" stroke="black" cx="3502" cy="-281.25" rx="79.51" ry="18"/>
<text text-anchor="middle" x="3502" y="-275.82" font-family="Times New Roman,serif" font-size="14.00">leaf=&#45;0.579769075</text>
</g>
<!-- 5&#45;&gt;12 -->
<g id="edge48" class="edge">
<title>5&#45;&gt;12</title>
<path fill="none" stroke="red" d="M3449.85,-351.06C3459.04,-338.92 3471.61,-322.35 3482.1,-308.51"/>
<polygon fill="red" stroke="red" points="3484.8,-310.74 3488.05,-300.66 3479.22,-306.51 3484.8,-310.74"/>
<text text-anchor="middle" x="3507.88" y="-319.7" font-family="Times New Roman,serif" font-size="14.00">no, missing</text>
</g>
<!-- 13 -->
<g id="node58" class="node">
<title>13</title>
<ellipse fill="none" stroke="black" cx="3699" cy="-281.25" rx="99.47" ry="18"/>
<text text-anchor="middle" x="3699" y="-275.82" font-family="Times New Roman,serif" font-size="14.00">PTRATIO&lt;18.2000008</text>
</g>
<!-- 6&#45;&gt;13 -->
<g id="edge57" class="edge">
<title>6&#45;&gt;13</title>
<path fill="none" stroke="blue" d="M3699,-350.65C3699,-339.26 3699,-324.09 3699,-310.93"/>
<polygon fill="blue" stroke="blue" points="3702.5,-311.09 3699,-301.09 3695.5,-311.09 3702.5,-311.09"/>
<text text-anchor="middle" x="3708.38" y="-319.7" font-family="Times New Roman,serif" font-size="14.00">yes</text>
</g>
<!-- 14 -->
<g id="node59" class="node">
<title>14</title>
<ellipse fill="none" stroke="black" cx="3900" cy="-281.25" rx="84" ry="18"/>
<text text-anchor="middle" x="3900" y="-275.82" font-family="Times New Roman,serif" font-size="14.00">leaf=&#45;0.0448267944</text>
</g>
<!-- 6&#45;&gt;14 -->
<g id="edge58" class="edge">
<title>6&#45;&gt;14</title>
<path fill="none" stroke="red" d="M3735.4,-352.47C3768.46,-338.37 3817.38,-317.5 3853.31,-302.17"/>
<polygon fill="red" stroke="red" points="3854.32,-305.55 3862.14,-298.4 3851.57,-299.11 3854.32,-305.55"/>
<text text-anchor="middle" x="3848.88" y="-319.7" font-family="Times New Roman,serif" font-size="14.00">no, missing</text>
</g>
<!-- 23 -->
<g id="node50" class="node">
<title>23</title>
<ellipse fill="none" stroke="black" cx="3305" cy="-193.5" rx="57.05" ry="18"/>
<text text-anchor="middle" x="3305" y="-188.07" font-family="Times New Roman,serif" font-size="14.00">LSTAT&lt;5.5</text>
</g>
<!-- 11&#45;&gt;23 -->
<g id="edge49" class="edge">
<title>11&#45;&gt;23</title>
<path fill="none" stroke="blue" d="M3305,-262.9C3305,-251.51 3305,-236.34 3305,-223.18"/>
<polygon fill="blue" stroke="blue" points="3308.5,-223.34 3305,-213.34 3301.5,-223.34 3308.5,-223.34"/>
<text text-anchor="middle" x="3314.38" y="-231.95" font-family="Times New Roman,serif" font-size="14.00">yes</text>
</g>
<!-- 24 -->
<g id="node51" class="node">
<title>24</title>
<ellipse fill="none" stroke="black" cx="3461" cy="-193.5" rx="81" ry="18"/>
<text text-anchor="middle" x="3461" y="-188.07" font-family="Times New Roman,serif" font-size="14.00">leaf=0.0551732071</text>
</g>
<!-- 11&#45;&gt;24 -->
<g id="edge50" class="edge">
<title>11&#45;&gt;24</title>
<path fill="none" stroke="red" d="M3335.08,-263.72C3359.73,-250.17 3394.81,-230.88 3421.69,-216.11"/>
<polygon fill="red" stroke="red" points="3423.14,-219.31 3430.22,-211.42 3419.77,-213.17 3423.14,-219.31"/>
<text text-anchor="middle" x="3428.88" y="-231.95" font-family="Times New Roman,serif" font-size="14.00">no, missing</text>
</g>
<!-- 37 -->
<g id="node52" class="node">
<title>37</title>
<ellipse fill="none" stroke="black" cx="3305" cy="-105.75" rx="44.08" ry="18"/>
<text text-anchor="middle" x="3305" y="-100.33" font-family="Times New Roman,serif" font-size="14.00">AGE&lt;13</text>
</g>
<!-- 23&#45;&gt;37 -->
<g id="edge51" class="edge">
<title>23&#45;&gt;37</title>
<path fill="none" stroke="blue" d="M3305,-175.15C3305,-163.76 3305,-148.59 3305,-135.43"/>
<polygon fill="blue" stroke="blue" points="3308.5,-135.59 3305,-125.59 3301.5,-135.59 3308.5,-135.59"/>
<text text-anchor="middle" x="3314.38" y="-144.2" font-family="Times New Roman,serif" font-size="14.00">yes</text>
</g>
<!-- 38 -->
<g id="node53" class="node">
<title>38</title>
<ellipse fill="none" stroke="black" cx="3566" cy="-105.75" rx="73.52" ry="18"/>
<text text-anchor="middle" x="3566" y="-100.33" font-family="Times New Roman,serif" font-size="14.00">RM&lt;7.08799982</text>
</g>
<!-- 23&#45;&gt;38 -->
<g id="edge52" class="edge">
<title>23&#45;&gt;38</title>
<path fill="none" stroke="red" d="M3343.52,-179.85C3388.3,-165.13 3462.49,-140.76 3512.77,-124.24"/>
<polygon fill="red" stroke="red" points="3513.58,-127.66 3521.99,-121.21 3511.4,-121.01 3513.58,-127.66"/>
<text text-anchor="middle" x="3490.88" y="-144.2" font-family="Times New Roman,serif" font-size="14.00">no, missing</text>
</g>
<!-- 57 -->
<g id="node54" class="node">
<title>57</title>
<ellipse fill="none" stroke="black" cx="3232" cy="-18" rx="76.51" ry="18"/>
<text text-anchor="middle" x="3232" y="-12.57" font-family="Times New Roman,serif" font-size="14.00">leaf=0.433564335</text>
</g>
<!-- 37&#45;&gt;57 -->
<g id="edge53" class="edge">
<title>37&#45;&gt;57</title>
<path fill="none" stroke="blue" d="M3290.93,-88.22C3280.46,-75.92 3265.97,-58.9 3253.99,-44.82"/>
<polygon fill="blue" stroke="blue" points="3256.66,-42.57 3247.52,-37.22 3251.33,-47.11 3256.66,-42.57"/>
<text text-anchor="middle" x="3285.38" y="-56.45" font-family="Times New Roman,serif" font-size="14.00">yes</text>
</g>
<!-- 58 -->
<g id="node55" class="node">
<title>58</title>
<ellipse fill="none" stroke="black" cx="3399" cy="-18" rx="72.02" ry="18"/>
<text text-anchor="middle" x="3399" y="-12.57" font-family="Times New Roman,serif" font-size="14.00">leaf=1.24348617</text>
</g>
<!-- 37&#45;&gt;58 -->
<g id="edge54" class="edge">
<title>37&#45;&gt;58</title>
<path fill="none" stroke="red" d="M3322.24,-89.02C3336.2,-76.29 3356.09,-58.14 3372.13,-43.51"/>
<polygon fill="red" stroke="red" points="3374.44,-46.15 3379.47,-36.82 3369.72,-40.97 3374.44,-46.15"/>
<text text-anchor="middle" x="3392.88" y="-56.45" font-family="Times New Roman,serif" font-size="14.00">no, missing</text>
</g>
<!-- 59 -->
<g id="node56" class="node">
<title>59</title>
<ellipse fill="none" stroke="black" cx="3566" cy="-18" rx="76.51" ry="18"/>
<text text-anchor="middle" x="3566" y="-12.57" font-family="Times New Roman,serif" font-size="14.00">leaf=0.345288754</text>
</g>
<!-- 38&#45;&gt;59 -->
<g id="edge55" class="edge">
<title>38&#45;&gt;59</title>
<path fill="none" stroke="blue" d="M3566,-87.4C3566,-76.01 3566,-60.84 3566,-47.68"/>
<polygon fill="blue" stroke="blue" points="3569.5,-47.84 3566,-37.84 3562.5,-47.84 3569.5,-47.84"/>
<text text-anchor="middle" x="3575.38" y="-56.45" font-family="Times New Roman,serif" font-size="14.00">yes</text>
</g>
<!-- 60 -->
<g id="node57" class="node">
<title>60</title>
<ellipse fill="none" stroke="black" cx="3737" cy="-18" rx="76.51" ry="18"/>
<text text-anchor="middle" x="3737" y="-12.57" font-family="Times New Roman,serif" font-size="14.00">leaf=0.984165967</text>
</g>
<!-- 38&#45;&gt;60 -->
<g id="edge56" class="edge">
<title>38&#45;&gt;60</title>
<path fill="none" stroke="red" d="M3597.37,-89.02C3624.88,-75.23 3665.1,-55.06 3695.32,-39.9"/>
<polygon fill="red" stroke="red" points="3696.83,-43.06 3704.2,-35.45 3693.69,-36.81 3696.83,-43.06"/>
<text text-anchor="middle" x="3698.88" y="-56.45" font-family="Times New Roman,serif" font-size="14.00">no, missing</text>
</g>
<!-- 25 -->
<g id="node60" class="node">
<title>25</title>
<ellipse fill="none" stroke="black" cx="3666" cy="-193.5" rx="72.02" ry="18"/>
<text text-anchor="middle" x="3666" y="-188.07" font-family="Times New Roman,serif" font-size="14.00">leaf=2.23616529</text>
</g>
<!-- 13&#45;&gt;25 -->
<g id="edge59" class="edge">
<title>13&#45;&gt;25</title>
<path fill="none" stroke="blue" d="M3692.33,-262.9C3687.85,-251.27 3681.87,-235.72 3676.73,-222.38"/>
<polygon fill="blue" stroke="blue" points="3680.07,-221.32 3673.22,-213.24 3673.54,-223.83 3680.07,-221.32"/>
<text text-anchor="middle" x="3695.38" y="-231.95" font-family="Times New Roman,serif" font-size="14.00">yes</text>
</g>
<!-- 26 -->
<g id="node61" class="node">
<title>26</title>
<ellipse fill="none" stroke="black" cx="3828" cy="-193.5" rx="72.02" ry="18"/>
<text text-anchor="middle" x="3828" y="-188.07" font-family="Times New Roman,serif" font-size="14.00">leaf=1.07525992</text>
</g>
<!-- 13&#45;&gt;26 -->
<g id="edge60" class="edge">
<title>13&#45;&gt;26</title>
<path fill="none" stroke="red" d="M3724.18,-263.51C3744.24,-250.18 3772.5,-231.4 3794.47,-216.79"/>
<polygon fill="red" stroke="red" points="3796.11,-219.9 3802.5,-211.45 3792.24,-214.07 3796.11,-219.9"/>
<text text-anchor="middle" x="3806.88" y="-231.95" font-family="Times New Roman,serif" font-size="14.00">no, missing</text>
</g>
</g>
</svg>
